<svg xmlns="http://www.w3.org/2000/svg" width="22.284" height="25.468" viewBox="0 0 22.284 25.468">
  <path id="trash" d="M9.755,1.592H14.53a.8.8,0,0,1,.8.8V3.979H8.959V2.388A.8.8,0,0,1,9.755,1.592Zm7.163,2.388V2.388A2.388,2.388,0,0,0,14.53,0H9.755A2.388,2.388,0,0,0,7.367,2.388V3.979H1.8a.8.8,0,0,0,0,1.592h.856L4.01,22.539a3.183,3.183,0,0,0,3.174,2.929H17.1a3.184,3.184,0,0,0,3.174-2.929L21.632,5.571h.856a.8.8,0,0,0,0-1.592H16.917Zm3.117,1.592L18.687,22.412A1.592,1.592,0,0,1,17.1,23.876H7.184A1.592,1.592,0,0,1,5.6,22.411L4.25,5.571ZM8.117,7.163a.8.8,0,0,1,.84.748l.8,13.53a.8.8,0,1,1-1.589.1l-.8-13.53a.8.8,0,0,1,.748-.844Zm8.051,0a.8.8,0,0,1,.748.844l-.8,13.53a.8.8,0,1,1-1.589-.1l.8-13.53a.8.8,0,0,1,.84-.748Zm-4.026,0a.8.8,0,0,1,.8.8v13.53a.8.8,0,0,1-1.592,0V7.959A.8.8,0,0,1,12.142,7.163Z" transform="translate(-1)" fill="#2581f9"/>
</svg>
